<svg width="18" height="19" viewBox="0 0 18 19" fill="none" xmlns="http://www.w3.org/2000/svg">
<path d="M16 9C16 7.05 15.3207 5.39567 13.962 4.037C12.604 2.679 10.95 2 9 2V0C10.25 0 11.421 0.237333 12.513 0.712C13.6043 1.18733 14.5543 1.82933 15.363 2.638C16.171 3.446 16.8127 4.396 17.288 5.488C17.7627 6.57933 18 7.75 18 9H16ZM12 9C12 8.16667 11.7083 7.45833 11.125 6.875C10.5417 6.29167 9.83333 6 9 6V4C10.3833 4 11.5627 4.48733 12.538 5.462C13.5127 6.43733 14 7.61667 14 9H12ZM16.95 18.05C14.8 18.05 12.7043 17.575 10.663 16.625C8.621 15.675 6.81267 14.4083 5.238 12.825C3.66267 11.2417 2.396 9.429 1.438 7.387C0.479334 5.34567 0 3.25 0 1.1V0.575C0 0.391667 0.0166666 0.216667 0.05 0.05H5.9L6.825 5.075L3.975 7.95C4.675 9.15 5.55433 10.275 6.613 11.325C7.671 12.375 8.83333 13.2833 10.1 14.05L13 11.15L18 12.15V18C17.8333 18.0167 17.6583 18.0293 17.475 18.038C17.2917 18.046 17.1167 18.05 16.95 18.05Z" fill="black"/>
</svg>
